<svg
                  
                  viewBox="0 0 30 37"
                  fill="none"
                  xmlns="http://www.w3.org/2000/svg"
                >
                  <path
                    d="M15 20.25C17.8995 20.25 20.25 17.8995 20.25 15C20.25 12.1005 17.8995 9.75 15 9.75C12.1005 9.75 9.75 12.1005 9.75 15C9.75 17.8995 12.1005 20.25 15 20.25Z"
                    stroke="#878787"
                    stroke-width="2"
                    stroke-linecap="round"
                    stroke-linejoin="round"
                  />
                  <path
                    d="M15 1C11.287 1 7.72601 2.475 5.10051 5.10051C2.475 7.72601 1 11.287 1 15C1 18.311 1.7035 20.4775 3.625 22.875L15 36L26.375 22.875C28.2965 20.4775 29 18.311 29 15C29 11.287 27.525 7.72601 24.8995 5.10051C22.274 2.475 18.713 1 15 1V1Z"
                    stroke="#878787"
                    stroke-width="2"
                    stroke-linecap="round"
                    stroke-linejoin="round"
                  />
                </svg>
